<?xml version="1.0" encoding="UTF-8" standalone="no"?>
<!-- Created with Inkscape (http://www.inkscape.org/) -->

<svg
   width="840"
   height="530.4433"
   id="svg2"
   version="1.1"
   inkscape:version="1.2.2 (b0a8486541, 2022-12-01)"
   sodipodi:docname="default-activity.svg"
   inkscape:export-filename="/home/jpenrici/Documentos/PABLO_FAETEC/FAETEC_EXCEL-AVANÇADO/EXCEL2_WhatsApp_Msg/Imagens-PNG/EXCEL2_Faetec_WhatsApp_Aula_1.png"
   inkscape:export-xdpi="149"
   inkscape:export-ydpi="149"
   xml:space="preserve"
   xmlns:inkscape="http://www.inkscape.org/namespaces/inkscape"
   xmlns:sodipodi="http://sodipodi.sourceforge.net/DTD/sodipodi-0.dtd"
   xmlns:xlink="http://www.w3.org/1999/xlink"
   xmlns="http://www.w3.org/2000/svg"
   xmlns:svg="http://www.w3.org/2000/svg"
   xmlns:rdf="http://www.w3.org/1999/02/22-rdf-syntax-ns#"
   xmlns:cc="http://creativecommons.org/ns#"
   xmlns:dc="http://purl.org/dc/elements/1.1/"><defs
     id="defs4"><linearGradient
   y2="1"
   id="imagebot_21"><stop
     id="stop3009"
     offset="0"
     stop-color="#e470e6" /><stop
     id="stop3011"
     offset="1"
     stop-color="#a849a3" /></linearGradient><pattern
   height="1.5"
   patternTransform="matrix(.74237 0 0 .74237 249.66 141.34)"
   patternUnits="userSpaceOnUse"
   width="1.5"
   id="pattern6825"><path
     sodipodi:cx="-63"
     sodipodi:cy="40.849091"
     transform="matrix(.375 0 0 .375 24.375 -14.568)"
     d="m-61 40.849a2 2 0 1 1 -4 0 2 2 0 1 1 4 0z"
     sodipodi:type="arc"
     style="color:#000000;fill:#00ff00"
     sodipodi:ry="2"
     sodipodi:rx="2"
     id="path6823" /></pattern><linearGradient
   inkscape:collect="always"
   x1="412.98001"
   y1="116.95"
   x2="412.89001"
   gradientUnits="userSpaceOnUse"
   xlink:href="#linearGradient7863"
   y2="109.27"
   id="linearGradient7062" /><linearGradient
   id="linearGradient7863"><stop
     offset="0"
     style="stop-color:#212121"
     id="stop7865" /><stop
     offset="0"
     style="stop-color:#1b1b1b"
     id="stop8485" /><stop
     offset="0"
     style="stop-color:#373737"
     id="stop7101" /><stop
     offset="1"
     style="stop-color:#545454"
     id="stop7867" /></linearGradient><linearGradient
   id="linearGradient20569"><stop
     offset="0"
     style="stop-color:#c1c1c1;stop-opacity:.98261"
     id="stop20571" /><stop
     offset=".14516"
     style="stop-color:#cccccc;stop-opacity:0"
     id="stop20731" /><stop
     offset="1"
     style="stop-color:#000000;stop-opacity:0"
     id="stop20729" /></linearGradient><linearGradient
   id="linearGradient34287"><stop
     offset="0"
     style="stop-color:#f6f6f6"
     id="stop34289" /><stop
     offset=".43325"
     style="stop-color:#9a9a9a"
     id="stop34295" /><stop
     offset="1"
     style="stop-color:#3e3e3e"
     id="stop34291" /></linearGradient><linearGradient
   id="linearGradient4949"><stop
     offset="0"
     style="stop-color:#1d1d1d"
     id="stop4951" /><stop
     offset=".25"
     style="stop-color:#393939"
     id="stop4959" /><stop
     offset=".5"
     style="stop-color:#565656"
     id="stop4957" /><stop
     offset=".97072"
     style="stop-color:#808080"
     id="stop4961" /><stop
     offset="1"
     style="stop-color:#bfbfbf"
     id="stop4953" /></linearGradient><linearGradient
   id="linearGradient5214"><stop
     offset="0"
     style="stop-color:#1d1d1d"
     id="stop5216" /><stop
     offset=".084138"
     style="stop-color:#393939"
     id="stop5218" /><stop
     offset=".15536"
     style="stop-color:#565656"
     id="stop5220" /><stop
     offset=".85453"
     style="stop-color:#808080"
     id="stop5222" /><stop
     offset="1"
     style="stop-color:#bfbfbf"
     id="stop5224" /></linearGradient><linearGradient
   inkscape:collect="always"
   xlink:href="#linearGradient7863"
   id="linearGradient6070"
   gradientUnits="userSpaceOnUse"
   x1="412.98001"
   y1="116.95"
   x2="412.89001"
   y2="109.27" /><linearGradient
   inkscape:collect="always"
   xlink:href="#linearGradient7863"
   id="linearGradient7168"
   gradientUnits="userSpaceOnUse"
   x1="412.98001"
   y1="116.95"
   x2="412.89001"
   y2="109.27" /><linearGradient
   inkscape:collect="always"
   xlink:href="#linearGradient7863"
   id="linearGradient8252"
   gradientUnits="userSpaceOnUse"
   x1="412.98001"
   y1="116.95"
   x2="412.89001"
   y2="109.27" /><pattern
   height="1.5"
   patternTransform="matrix(.74237 0 0 .74237 249.66 141.34)"
   patternUnits="userSpaceOnUse"
   width="1.5"
   id="pattern6825-3"><path
     sodipodi:cx="-63"
     sodipodi:cy="40.849091"
     transform="matrix(.375 0 0 .375 24.375 -14.568)"
     d="m-61 40.849a2 2 0 1 1 -4 0 2 2 0 1 1 4 0z"
     sodipodi:type="arc"
     style="color:#000000;fill:#00ff00"
     sodipodi:ry="2"
     sodipodi:rx="2"
     id="path6823-5" /></pattern><pattern
   height="1.5"
   patternTransform="matrix(.74237 0 0 .74237 249.66 141.34)"
   patternUnits="userSpaceOnUse"
   width="1.5"
   id="pattern8266"><path
     sodipodi:cx="-63"
     sodipodi:cy="40.849091"
     transform="matrix(.375 0 0 .375 24.375 -14.568)"
     d="m-61 40.849a2 2 0 1 1 -4 0 2 2 0 1 1 4 0z"
     sodipodi:type="arc"
     style="color:#000000;fill:#00ff00"
     sodipodi:ry="2"
     sodipodi:rx="2"
     id="path8268" /></pattern><pattern
   height="1.5"
   patternTransform="matrix(.74237 0 0 .74237 249.66 141.34)"
   patternUnits="userSpaceOnUse"
   width="1.5"
   id="pattern8270"><path
     sodipodi:cx="-63"
     sodipodi:cy="40.849091"
     transform="matrix(.375 0 0 .375 24.375 -14.568)"
     d="m-61 40.849a2 2 0 1 1 -4 0 2 2 0 1 1 4 0z"
     sodipodi:type="arc"
     style="color:#000000;fill:#00ff00"
     sodipodi:ry="2"
     sodipodi:rx="2"
     id="path8272" /></pattern><pattern
   height="1.5"
   patternTransform="matrix(.74237 0 0 .74237 249.66 141.34)"
   patternUnits="userSpaceOnUse"
   width="1.5"
   id="pattern8274"><path
     sodipodi:cx="-63"
     sodipodi:cy="40.849091"
     transform="matrix(.375 0 0 .375 24.375 -14.568)"
     d="m-61 40.849a2 2 0 1 1 -4 0 2 2 0 1 1 4 0z"
     sodipodi:type="arc"
     style="color:#000000;fill:#00ff00"
     sodipodi:ry="2"
     sodipodi:rx="2"
     id="path8276" /></pattern><pattern
   height="1.5"
   patternTransform="matrix(.74237 0 0 .74237 249.66 141.34)"
   patternUnits="userSpaceOnUse"
   width="1.5"
   id="pattern8278"><path
     sodipodi:cx="-63"
     sodipodi:cy="40.849091"
     transform="matrix(.375 0 0 .375 24.375 -14.568)"
     d="m-61 40.849a2 2 0 1 1 -4 0 2 2 0 1 1 4 0z"
     sodipodi:type="arc"
     style="color:#000000;fill:#00ff00"
     sodipodi:ry="2"
     sodipodi:rx="2"
     id="path8280" /></pattern><linearGradient
   inkscape:collect="always"
   xlink:href="#linearGradient7054-2"
   id="linearGradient7782-6"
   gradientUnits="userSpaceOnUse"
   x1="406.76001"
   y1="180.19"
   x2="417.91"
   y2="122.6" /><linearGradient
   inkscape:collect="always"
   x1="406.76001"
   y1="180.19"
   x2="417.91"
   gradientUnits="userSpaceOnUse"
   y2="122.6"
   id="linearGradient7054-2"><stop
     offset="0"
     style="stop-color:#1d1d1d"
     id="stop4973-9" /><stop
     offset=".25"
     style="stop-color:#393939"
     id="stop4975-1" /><stop
     offset=".5"
     style="stop-color:#565656"
     id="stop4977-2" /><stop
     offset=".80768"
     style="stop-color:#808080"
     id="stop4979-7" /><stop
     offset="1"
     style="stop-color:#bfbfbf"
     id="stop4981-0" /></linearGradient><linearGradient
   inkscape:collect="always"
   xlink:href="#linearGradient7863-3"
   id="linearGradient7784-9"
   gradientUnits="userSpaceOnUse"
   x1="406.76001"
   y1="180.19"
   x2="417.91"
   y2="122.6" /><linearGradient
   id="linearGradient7863-3"><stop
     offset="0"
     style="stop-color:#212121"
     id="stop7865-6" /><stop
     offset="0"
     style="stop-color:#1b1b1b"
     id="stop8485-0" /><stop
     offset="0"
     style="stop-color:#373737"
     id="stop7101-6" /><stop
     offset="1"
     style="stop-color:#545454"
     id="stop7867-2" /></linearGradient><linearGradient
   id="imagebot_21-5"
   y2="1"><stop
     stop-color="#e470e6"
     offset="0"
     id="stop3009-0" /><stop
     stop-color="#a849a3"
     offset="1"
     id="stop3011-4" /></linearGradient><pattern
   id="pattern6825-87"
   width="1.5"
   patternUnits="userSpaceOnUse"
   patternTransform="matrix(.74237 0 0 .74237 249.66 141.34)"
   height="1.5"><path
     id="path6823-1"
     sodipodi:rx="2"
     sodipodi:ry="2"
     style="color:#000000;fill:#00ff00"
     sodipodi:type="arc"
     d="m-61 40.849a2 2 0 1 1 -4 0 2 2 0 1 1 4 0z"
     transform="matrix(.375 0 0 .375 24.375 -14.568)"
     sodipodi:cy="40.849091"
     sodipodi:cx="-63" /></pattern><pattern
   id="pattern6825-3-5"
   width="1.5"
   patternUnits="userSpaceOnUse"
   patternTransform="matrix(.74237 0 0 .74237 249.66 141.34)"
   height="1.5"><path
     id="path6823-5-9"
     sodipodi:rx="2"
     sodipodi:ry="2"
     style="color:#000000;fill:#00ff00"
     sodipodi:type="arc"
     d="m-61 40.849a2 2 0 1 1 -4 0 2 2 0 1 1 4 0z"
     transform="matrix(.375 0 0 .375 24.375 -14.568)"
     sodipodi:cy="40.849091"
     sodipodi:cx="-63" /></pattern><pattern
   id="pattern8266-7"
   width="1.5"
   patternUnits="userSpaceOnUse"
   patternTransform="matrix(.74237 0 0 .74237 249.66 141.34)"
   height="1.5"><path
     id="path8268-7"
     sodipodi:rx="2"
     sodipodi:ry="2"
     style="color:#000000;fill:#00ff00"
     sodipodi:type="arc"
     d="m-61 40.849a2 2 0 1 1 -4 0 2 2 0 1 1 4 0z"
     transform="matrix(.375 0 0 .375 24.375 -14.568)"
     sodipodi:cy="40.849091"
     sodipodi:cx="-63" /></pattern><pattern
   id="pattern8270-6"
   width="1.5"
   patternUnits="userSpaceOnUse"
   patternTransform="matrix(.74237 0 0 .74237 249.66 141.34)"
   height="1.5"><path
     id="path8272-7"
     sodipodi:rx="2"
     sodipodi:ry="2"
     style="color:#000000;fill:#00ff00"
     sodipodi:type="arc"
     d="m-61 40.849a2 2 0 1 1 -4 0 2 2 0 1 1 4 0z"
     transform="matrix(.375 0 0 .375 24.375 -14.568)"
     sodipodi:cy="40.849091"
     sodipodi:cx="-63" /></pattern><pattern
   id="pattern8274-3"
   width="1.5"
   patternUnits="userSpaceOnUse"
   patternTransform="matrix(.74237 0 0 .74237 249.66 141.34)"
   height="1.5"><path
     id="path8276-6"
     sodipodi:rx="2"
     sodipodi:ry="2"
     style="color:#000000;fill:#00ff00"
     sodipodi:type="arc"
     d="m-61 40.849a2 2 0 1 1 -4 0 2 2 0 1 1 4 0z"
     transform="matrix(.375 0 0 .375 24.375 -14.568)"
     sodipodi:cy="40.849091"
     sodipodi:cx="-63" /></pattern><pattern
   id="pattern8278-5"
   width="1.5"
   patternUnits="userSpaceOnUse"
   patternTransform="matrix(.74237 0 0 .74237 249.66 141.34)"
   height="1.5"><path
     id="path8280-6"
     sodipodi:rx="2"
     sodipodi:ry="2"
     style="color:#000000;fill:#00ff00"
     sodipodi:type="arc"
     d="m-61 40.849a2 2 0 1 1 -4 0 2 2 0 1 1 4 0z"
     transform="matrix(.375 0 0 .375 24.375 -14.568)"
     sodipodi:cy="40.849091"
     sodipodi:cx="-63" /></pattern><linearGradient
   y2="1"
   id="imagebot_21-8"><stop
     id="stop3009-7"
     offset="0"
     stop-color="#e470e6" /><stop
     id="stop3011-2"
     offset="1"
     stop-color="#a849a3" /></linearGradient><pattern
   height="1.5"
   patternTransform="matrix(.74237 0 0 .74237 249.66 141.34)"
   patternUnits="userSpaceOnUse"
   width="1.5"
   id="pattern6825-8"><path
     sodipodi:cx="-63"
     sodipodi:cy="40.849091"
     transform="matrix(.375 0 0 .375 24.375 -14.568)"
     d="m-61 40.849a2 2 0 1 1 -4 0 2 2 0 1 1 4 0z"
     sodipodi:type="arc"
     style="color:#000000;fill:#00ff00"
     sodipodi:ry="2"
     sodipodi:rx="2"
     id="path6823-2" /></pattern><pattern
   height="1.5"
   patternTransform="matrix(.74237 0 0 .74237 249.66 141.34)"
   patternUnits="userSpaceOnUse"
   width="1.5"
   id="pattern6825-3-7"><path
     sodipodi:cx="-63"
     sodipodi:cy="40.849091"
     transform="matrix(.375 0 0 .375 24.375 -14.568)"
     d="m-61 40.849a2 2 0 1 1 -4 0 2 2 0 1 1 4 0z"
     sodipodi:type="arc"
     style="color:#000000;fill:#00ff00"
     sodipodi:ry="2"
     sodipodi:rx="2"
     id="path6823-5-0" /></pattern><pattern
   height="1.5"
   patternTransform="matrix(.74237 0 0 .74237 249.66 141.34)"
   patternUnits="userSpaceOnUse"
   width="1.5"
   id="pattern8266-4"><path
     sodipodi:cx="-63"
     sodipodi:cy="40.849091"
     transform="matrix(.375 0 0 .375 24.375 -14.568)"
     d="m-61 40.849a2 2 0 1 1 -4 0 2 2 0 1 1 4 0z"
     sodipodi:type="arc"
     style="color:#000000;fill:#00ff00"
     sodipodi:ry="2"
     sodipodi:rx="2"
     id="path8268-8" /></pattern><pattern
   height="1.5"
   patternTransform="matrix(.74237 0 0 .74237 249.66 141.34)"
   patternUnits="userSpaceOnUse"
   width="1.5"
   id="pattern8270-0"><path
     sodipodi:cx="-63"
     sodipodi:cy="40.849091"
     transform="matrix(.375 0 0 .375 24.375 -14.568)"
     d="m-61 40.849a2 2 0 1 1 -4 0 2 2 0 1 1 4 0z"
     sodipodi:type="arc"
     style="color:#000000;fill:#00ff00"
     sodipodi:ry="2"
     sodipodi:rx="2"
     id="path8272-4" /></pattern><pattern
   height="1.5"
   patternTransform="matrix(.74237 0 0 .74237 249.66 141.34)"
   patternUnits="userSpaceOnUse"
   width="1.5"
   id="pattern8274-2"><path
     sodipodi:cx="-63"
     sodipodi:cy="40.849091"
     transform="matrix(.375 0 0 .375 24.375 -14.568)"
     d="m-61 40.849a2 2 0 1 1 -4 0 2 2 0 1 1 4 0z"
     sodipodi:type="arc"
     style="color:#000000;fill:#00ff00"
     sodipodi:ry="2"
     sodipodi:rx="2"
     id="path8276-9" /></pattern><pattern
   height="1.5"
   patternTransform="matrix(.74237 0 0 .74237 249.66 141.34)"
   patternUnits="userSpaceOnUse"
   width="1.5"
   id="pattern8278-6"><path
     sodipodi:cx="-63"
     sodipodi:cy="40.849091"
     transform="matrix(.375 0 0 .375 24.375 -14.568)"
     d="m-61 40.849a2 2 0 1 1 -4 0 2 2 0 1 1 4 0z"
     sodipodi:type="arc"
     style="color:#000000;fill:#00ff00"
     sodipodi:ry="2"
     sodipodi:rx="2"
     id="path8280-1" /></pattern><linearGradient
   id="linearGradient8909"><stop
     offset="0"
     style="stop-color:#767674"
     id="stop8911" /><stop
     offset=".92457"
     style="stop-color:#646464"
     id="stop8917" /><stop
     offset="1"
     style="stop-color:#ababab"
     id="stop8913" /></linearGradient><clipPath
   clipPathUnits="userSpaceOnUse"
   id="clipPath9256"><rect
     x="580.45001"
     y="-267.47"
     width="10.89"
     height="32.685001"
     ry="0.79623997"
     transform="matrix(0.94536,-0.32603,0.03972,0.99921,0,0)"
     style="fill:url(#linearGradient9260)"
     id="rect9258" /></clipPath><clipPath
   clipPathUnits="userSpaceOnUse"
   id="clipPath9438"><path
     inkscape:connector-curvature="0"
     style="opacity:0.29204;fill:url(#linearGradient9442)"
     sodipodi:nodetypes="cccccccssssc"
     d="m 540.41,-456.38 7.7096,-1.8037 0.33003,4.67 4.1364,-1.0619 1.1062,18.878 -4.2067,1.2486 0.2913,3.8772 -7.7468,1.8367 c -0.51964,0.1228 -0.95687,-0.0806 -0.97873,-0.45373 l -1.541,-26.298 c -0.0219,-0.3731 0.37945,-0.77147 0.8998,-0.89321 z"
     id="path9440" /></clipPath><linearGradient
   id="linearGradient9454"><stop
     offset="0"
     style="stop-color:#bf9f00"
     id="stop9456" /><stop
     offset="1"
     style="stop-color:#5d4000"
     id="stop9458" /></linearGradient><clipPath
   clipPathUnits="userSpaceOnUse"
   id="clipPath8"><path
     d="m 2988.8291,1332.8532 h 959.375 v 709.375 h -959.375 z"
     transform="matrix(0.12824636,0,0,0.12824636,-383.56217,-171.13355)"
     clip-rule="evenodd"
     id="path8" /></clipPath><clipPath
   clipPathUnits="userSpaceOnUse"
   id="clipPath4"><path
     d="m 2050.0791,1332.8532 h 959.375 v 271.875 h -959.375 z"
     transform="matrix(0.2813511,0,0,0.2813511,-569.53503,-354.1997)"
     clip-rule="evenodd"
     id="path4-6" /></clipPath><clipPath
   clipPathUnits="userSpaceOnUse"
   id="clipPath8-7"><path
     d="m 2988.8291,1332.8532 h 959.375 v 709.375 h -959.375 z"
     transform="matrix(0.12824636,0,0,0.12824636,-383.56217,-171.13355)"
     clip-rule="evenodd"
     id="path8-5" /></clipPath><inkscape:perspective
   sodipodi:type="inkscape:persp3d"
   inkscape:vp_x="0 : 556.62439 : 1"
   inkscape:vp_y="0 : 1000 : 0"
   inkscape:vp_z="744.09448 : 556.62439 : 1"
   inkscape:persp3d-origin="372.04724 : 381.23069 : 1"
   id="perspective10" /><linearGradient
   y2="42.612633"
   x2="44.70229"
   y1="34.687023"
   x1="5.0680437"
   gradientTransform="rotate(90,31.596101,39.030829)"
   gradientUnits="userSpaceOnUse"
   id="linearGradient1463"
   xlink:href="#linearGradient2127"
   inkscape:collect="always" /><linearGradient
   y2="62.810131"
   x2="16.504204"
   y1="15.40625"
   x1="32.382065"
   gradientTransform="rotate(90,31.596101,39.030829)"
   gradientUnits="userSpaceOnUse"
   id="linearGradient1460"
   xlink:href="#linearGradient1352"
   inkscape:collect="always" /><linearGradient
   y2="62.974236"
   x2="20.353058"
   y1="16.25"
   x1="28.414125"
   gradientTransform="rotate(90,31.512111,39.128519)"
   gradientUnits="userSpaceOnUse"
   id="linearGradient1457"
   xlink:href="#linearGradient1406"
   inkscape:collect="always" /><linearGradient
   y2="59.48378"
   x2="23.254532"
   y1="16.125437"
   x1="23.254534"
   gradientTransform="rotate(90,31.787395,38.915624)"
   gradientUnits="userSpaceOnUse"
   id="linearGradient1454"
   xlink:href="#linearGradient1416"
   inkscape:collect="always" /><linearGradient
   id="linearGradient1352"><stop
     id="stop1354"
     offset="0.0000000"
     style="stop-color:#179907;stop-opacity:1.0000000;" /><stop
     id="stop1356"
     offset="1.0000000"
     style="stop-color:#0f7402;stop-opacity:1.0000000;" /></linearGradient><linearGradient
   id="linearGradient2127"><stop
     id="stop2129"
     offset="0.0000000"
     style="stop-color:#1b611f;stop-opacity:1.0000000;" /><stop
     id="stop2131"
     offset="1.0000000"
     style="stop-color:#103f14;stop-opacity:1.0000000;" /></linearGradient><linearGradient
   id="linearGradient1406"><stop
     id="stop1408"
     offset="0.0000000"
     style="stop-color:#56d760;stop-opacity:0.58862877;" /><stop
     id="stop1410"
     offset="1.0000000"
     style="stop-color:#18b01f;stop-opacity:0.39215687;" /></linearGradient><linearGradient
   id="linearGradient1416"><stop
     style="stop-color:#3ec549;stop-opacity:0.50836122;"
     offset="0.0000000"
     id="stop1418" /><stop
     style="stop-color:#4fe756;stop-opacity:0.11705685;"
     offset="1.0000000"
     id="stop1420" /></linearGradient><inkscape:perspective
   id="perspective2693"
   inkscape:persp3d-origin="25 : 43.776629 : 1"
   inkscape:vp_z="50 : 50.443299 : 1"
   inkscape:vp_y="0 : 1000 : 0"
   inkscape:vp_x="0 : 50.443299 : 1"
   sodipodi:type="inkscape:persp3d" /><linearGradient
   id="linearGradient1425"><stop
     style="stop-color:#f0d81f;stop-opacity:1.0000000;"
     offset="0.0000000"
     id="stop1427" /><stop
     style="stop-color:#f07d0a;stop-opacity:1.0000000;"
     offset="1.0000000"
     id="stop1429" /></linearGradient><linearGradient
   id="linearGradient1518"><stop
     style="stop-color:#f3ac39;stop-opacity:0.62876254;"
     offset="0.0000000"
     id="stop1520" /><stop
     style="stop-color:#fcba94;stop-opacity:0.78260869;"
     offset="1.0000000"
     id="stop1522" /></linearGradient><linearGradient
   id="linearGradient1552"><stop
     id="stop1554"
     offset="0.0000000"
     style="stop-color:#f9cc84;stop-opacity:1.0000000;" /><stop
     id="stop1556"
     offset="1.0000000"
     style="stop-color:#fed27f;stop-opacity:1.0000000;" /></linearGradient><inkscape:perspective
   id="perspective3639"
   inkscape:persp3d-origin="19 : 42.443299 : 1"
   inkscape:vp_z="38 : 48.443299 : 1"
   inkscape:vp_y="0 : 1000 : 0"
   inkscape:vp_x="0 : 48.443299 : 1"
   sodipodi:type="inkscape:persp3d" /><clipPath
   clipPathUnits="userSpaceOnUse"
   id="clipPath4-2"><path
     d="m 2050.0791,1332.8532 h 959.375 v 271.875 h -959.375 z"
     transform="matrix(0.2813511,0,0,0.2813511,-569.53503,-354.1997)"
     clip-rule="evenodd"
     id="path4-6-9" /></clipPath><clipPath
   clipPathUnits="userSpaceOnUse"
   id="clipPath4-2-1"><path
     d="m 2050.0791,1332.8532 h 959.375 v 271.875 h -959.375 z"
     transform="matrix(0.2813511,0,0,0.2813511,-569.53503,-354.1997)"
     clip-rule="evenodd"
     id="path4-6-9-9" /></clipPath><clipPath
   clipPathUnits="userSpaceOnUse"
   id="clipPath4-2-7"><path
     d="m 2050.0791,1332.8532 h 959.375 v 271.875 h -959.375 z"
     transform="matrix(0.2813511,0,0,0.2813511,-569.53503,-354.1997)"
     clip-rule="evenodd"
     id="path4-6-9-8" /></clipPath><inkscape:perspective
   sodipodi:type="inkscape:persp3d"
   inkscape:vp_x="0 : 251.4433 : 1"
   inkscape:vp_y="0 : 1000 : 0"
   inkscape:vp_z="324 : 251.4433 : 1"
   inkscape:persp3d-origin="162 : 177.77663 : 1"
   id="perspective42" /><clipPath
   clipPathUnits="userSpaceOnUse"
   id="clipPath8-6"><path
     d="m 2988.8291,1332.8532 h 959.375 v 709.375 h -959.375 z"
     transform="matrix(0.12824636,0,0,0.12824636,-383.56217,-171.13355)"
     clip-rule="evenodd"
     id="path8-4" /></clipPath><clipPath
   clipPathUnits="userSpaceOnUse"
   id="clipPath8-3"><path
     d="m 2988.8291,1332.8532 h 959.375 v 709.375 h -959.375 z"
     transform="matrix(0.12824636,0,0,0.12824636,-383.56217,-171.13355)"
     clip-rule="evenodd"
     id="path8-3" /></clipPath><clipPath
   clipPathUnits="userSpaceOnUse"
   id="clipPath4-6"><path
     d="m 2050.0791,1332.8532 h 959.375 v 271.875 h -959.375 z"
     transform="matrix(0.2813511,0,0,0.2813511,-569.53503,-354.1997)"
     clip-rule="evenodd"
     id="path4-6-0" /></clipPath><clipPath
   clipPathUnits="userSpaceOnUse"
   id="clipPath8-8"><path
     d="m 2988.8291,1332.8532 h 959.375 v 709.375 h -959.375 z"
     transform="matrix(0.12824636,0,0,0.12824636,-383.56217,-171.13355)"
     clip-rule="evenodd"
     id="path8-8" /></clipPath><clipPath
   clipPathUnits="userSpaceOnUse"
   id="clipPath2"><path
     d="M 115.625,250 H 2362.5 V 1328.125 H 115.625 Z"
     transform="matrix(0.31999999,0,0,0.31999999,-36.999998,-36.999998)"
     clip-rule="evenodd"
     id="path2" /></clipPath><clipPath
   clipPathUnits="userSpaceOnUse"
   id="clipPath4-0"><path
     d="M 115.625,250 H 2362.5 V 1328.125 H 115.625 Z"
     transform="matrix(0.31999999,0,0,0.31999999,-36.999998,-36.999998)"
     clip-rule="evenodd"
     id="path4" /></clipPath><clipPath
   clipPathUnits="userSpaceOnUse"
   id="clipPath6"><path
     d="M 115.625,250 H 2362.5 V 1328.125 H 115.625 Z"
     transform="matrix(0.31999999,0,0,0.31999999,-36.999998,-36.999998)"
     clip-rule="evenodd"
     id="path6" /></clipPath><clipPath
   clipPathUnits="userSpaceOnUse"
   id="clipPath8-2"><path
     d="M 115.625,250 H 2362.5 V 1328.125 H 115.625 Z"
     transform="matrix(0.31999999,0,0,0.31999999,-36.999998,-36.999998)"
     clip-rule="evenodd"
     id="path8-37" /></clipPath><clipPath
   clipPathUnits="userSpaceOnUse"
   id="clipPath10"><path
     d="M 115.625,250 H 2362.5 V 1328.125 H 115.625 Z"
     transform="matrix(0.31999999,0,0,0.31999999,-36.999998,-36.999998)"
     clip-rule="evenodd"
     id="path10" /></clipPath><clipPath
   clipPathUnits="userSpaceOnUse"
   id="clipPath12"><path
     d="M 115.625,250 H 2362.5 V 1328.125 H 115.625 Z"
     transform="matrix(0.31999999,0,0,0.31999999,-36.999998,-36.999998)"
     clip-rule="evenodd"
     id="path12" /></clipPath><clipPath
   clipPathUnits="userSpaceOnUse"
   id="clipPath14"><path
     d="M 115.625,250 H 2362.5 V 1328.125 H 115.625 Z"
     transform="matrix(0.31999999,0,0,0.31999999,-36.999998,-36.999998)"
     clip-rule="evenodd"
     id="path14" /></clipPath><clipPath
   clipPathUnits="userSpaceOnUse"
   id="clipPath16"><path
     d="M 115.625,250 H 2362.5 V 1328.125 H 115.625 Z"
     transform="matrix(0.31999999,0,0,0.31999999,-36.999998,-36.999998)"
     clip-rule="evenodd"
     id="path16" /></clipPath><clipPath
   clipPathUnits="userSpaceOnUse"
   id="clipPath18"><path
     d="M 115.625,250 H 2362.5 V 1328.125 H 115.625 Z"
     transform="matrix(0.31999999,0,0,0.31999999,-36.999998,-36.999998)"
     clip-rule="evenodd"
     id="path18" /></clipPath><clipPath
   clipPathUnits="userSpaceOnUse"
   id="clipPath20"><path
     d="M 115.625,250 H 2362.5 V 1328.125 H 115.625 Z"
     transform="matrix(0.31999999,0,0,0.31999999,-36.999998,-36.999998)"
     clip-rule="evenodd"
     id="path20" /></clipPath><clipPath
   clipPathUnits="userSpaceOnUse"
   id="clipPath22"><path
     d="M 115.625,250 H 2362.5 V 1328.125 H 115.625 Z"
     transform="matrix(0.31999999,0,0,0.31999999,-36.999998,-36.999998)"
     clip-rule="evenodd"
     id="path22" /></clipPath><clipPath
   clipPathUnits="userSpaceOnUse"
   id="clipPath24"><path
     d="M 115.625,250 H 2362.5 V 1328.125 H 115.625 Z"
     transform="matrix(0.31999999,0,0,0.31999999,-36.999998,-36.999998)"
     clip-rule="evenodd"
     id="path24" /></clipPath><clipPath
   clipPathUnits="userSpaceOnUse"
   id="clipPath26"><path
     d="M 115.625,250 H 2362.5 V 1328.125 H 115.625 Z"
     transform="matrix(0.31999999,0,0,0.31999999,-36.999998,-36.999998)"
     clip-rule="evenodd"
     id="path26" /></clipPath><clipPath
   clipPathUnits="userSpaceOnUse"
   id="clipPath28"><path
     d="M 115.625,250 H 2362.5 V 1328.125 H 115.625 Z"
     transform="matrix(0.31999999,0,0,0.31999999,-36.999998,-36.999998)"
     clip-rule="evenodd"
     id="path28" /></clipPath><clipPath
   clipPathUnits="userSpaceOnUse"
   id="clipPath30"><path
     d="M 115.625,250 H 2362.5 V 1328.125 H 115.625 Z"
     transform="matrix(0.31999999,0,0,0.31999999,-36.999998,-36.999998)"
     clip-rule="evenodd"
     id="path30" /></clipPath><clipPath
   clipPathUnits="userSpaceOnUse"
   id="clipPath32"><path
     d="M 115.625,250 H 2362.5 V 1328.125 H 115.625 Z"
     transform="matrix(0.31999999,0,0,0.31999999,-36.999998,-36.999998)"
     clip-rule="evenodd"
     id="path32" /></clipPath><clipPath
   clipPathUnits="userSpaceOnUse"
   id="clipPath34"><path
     d="M 115.625,250 H 2362.5 V 1328.125 H 115.625 Z"
     transform="matrix(0.31999999,0,0,0.31999999,-36.999998,-36.999998)"
     clip-rule="evenodd"
     id="path34" /></clipPath><clipPath
   clipPathUnits="userSpaceOnUse"
   id="clipPath36"><path
     d="M 115.625,250 H 2362.5 V 1328.125 H 115.625 Z"
     transform="matrix(0.31999999,0,0,0.31999999,-36.999998,-36.999998)"
     clip-rule="evenodd"
     id="path36" /></clipPath><clipPath
   clipPathUnits="userSpaceOnUse"
   id="clipPath38"><path
     d="M 115.625,250 H 2362.5 V 1328.125 H 115.625 Z"
     transform="matrix(0.31999999,0,0,0.31999999,-36.999998,-36.999998)"
     clip-rule="evenodd"
     id="path38" /></clipPath><clipPath
   clipPathUnits="userSpaceOnUse"
   id="clipPath42"><path
     d="M 115.625,250 H 2362.5 V 1328.125 H 115.625 Z"
     transform="matrix(0.31999999,0,0,0.31999999,-53.999998,-99.999996)"
     clip-rule="evenodd"
     id="path42" /></clipPath><clipPath
   clipPathUnits="userSpaceOnUse"
   id="clipPath44"><path
     d="M 115.625,250 H 2362.5 V 1328.125 H 115.625 Z"
     transform="matrix(0.32,0,0.08,0.32,-101.32813,-100)"
     clip-rule="evenodd"
     id="path44" /></clipPath><clipPath
   clipPathUnits="userSpaceOnUse"
   id="clipPath46"><path
     d="M 115.625,250 H 2362.5 V 1328.125 H 115.625 Z"
     transform="matrix(0.31999999,0,0,0.31999999,-53.999998,-117)"
     clip-rule="evenodd"
     id="path46" /></clipPath><clipPath
   clipPathUnits="userSpaceOnUse"
   id="clipPath48"><path
     d="M 115.625,250 H 2362.5 V 1328.125 H 115.625 Z"
     transform="matrix(0.32,0,0.08,0.32,-137.57813,-117)"
     clip-rule="evenodd"
     id="path48" /></clipPath><clipPath
   clipPathUnits="userSpaceOnUse"
   id="clipPath50"><path
     d="M 115.625,250 H 2362.5 V 1328.125 H 115.625 Z"
     transform="matrix(0.32,0,0.08,0.32,-385.48123,-117)"
     clip-rule="evenodd"
     id="path50" /></clipPath><clipPath
   clipPathUnits="userSpaceOnUse"
   id="clipPath52"><path
     d="M 115.625,250 H 2362.5 V 1328.125 H 115.625 Z"
     transform="matrix(0.31999999,0,0,0.31999999,-53.999998,-134.99999)"
     clip-rule="evenodd"
     id="path52" /></clipPath><clipPath
   clipPathUnits="userSpaceOnUse"
   id="clipPath54"><path
     d="M 115.625,250 H 2362.5 V 1328.125 H 115.625 Z"
     transform="matrix(0.32,0,0.08,0.32,-110.07812,-135)"
     clip-rule="evenodd"
     id="path54" /></clipPath><clipPath
   clipPathUnits="userSpaceOnUse"
   id="clipPath56"><path
     d="M 115.625,250 H 2362.5 V 1328.125 H 115.625 Z"
     transform="matrix(0.31999999,0,0,0.31999999,-53.999998,-151.99999)"
     clip-rule="evenodd"
     id="path56" /></clipPath><clipPath
   clipPathUnits="userSpaceOnUse"
   id="clipPath58"><path
     d="M 115.625,250 H 2362.5 V 1328.125 H 115.625 Z"
     transform="matrix(0.31999999,0,0,0.31999999,-53.999998,-168.99999)"
     clip-rule="evenodd"
     id="path58" /></clipPath><clipPath
   clipPathUnits="userSpaceOnUse"
   id="clipPath60"><path
     d="M 115.625,250 H 2362.5 V 1328.125 H 115.625 Z"
     transform="matrix(0.32,0,0.08,0.32,-118.57812,-169)"
     clip-rule="evenodd"
     id="path60" /></clipPath><clipPath
   clipPathUnits="userSpaceOnUse"
   id="clipPath62"><path
     d="M 115.625,250 H 2362.5 V 1328.125 H 115.625 Z"
     transform="matrix(0.31999999,0,0,0.31999999,-53.999998,-186.99999)"
     clip-rule="evenodd"
     id="path62" /></clipPath><clipPath
   clipPathUnits="userSpaceOnUse"
   id="clipPath64"><path
     d="M 115.625,250 H 2362.5 V 1328.125 H 115.625 Z"
     transform="matrix(0.31999999,0,0,0.31999999,-76.328122,-186.99999)"
     clip-rule="evenodd"
     id="path64" /></clipPath><clipPath
   clipPathUnits="userSpaceOnUse"
   id="clipPath66"><path
     d="M 115.625,250 H 2362.5 V 1328.125 H 115.625 Z"
     transform="matrix(0.31999999,0,0,0.31999999,-108.32496,-186.99999)"
     clip-rule="evenodd"
     id="path66" /></clipPath><clipPath
   clipPathUnits="userSpaceOnUse"
   id="clipPath68"><path
     d="M 115.625,250 H 2362.5 V 1328.125 H 115.625 Z"
     transform="matrix(0.31999999,0,0,0.31999999,-252.28124,-186.99999)"
     clip-rule="evenodd"
     id="path68" /></clipPath><clipPath
   clipPathUnits="userSpaceOnUse"
   id="clipPath70"><path
     d="M 115.625,250 H 2362.5 V 1328.125 H 115.625 Z"
     transform="matrix(0.31999999,0,0,0.31999999,-308.26562,-186.99999)"
     clip-rule="evenodd"
     id="path70" /></clipPath><clipPath
   clipPathUnits="userSpaceOnUse"
   id="clipPath72"><path
     d="M 115.625,250 H 2362.5 V 1328.125 H 115.625 Z"
     transform="matrix(0.31999999,0,0,0.31999999,-53.999998,-203.99999)"
     clip-rule="evenodd"
     id="path72" /></clipPath><clipPath
   clipPathUnits="userSpaceOnUse"
   id="clipPath74"><path
     d="M 115.625,250 H 2362.5 V 1328.125 H 115.625 Z"
     transform="matrix(0.31999999,0,0,0.31999999,-76.328122,-203.99999)"
     clip-rule="evenodd"
     id="path74" /></clipPath><clipPath
   clipPathUnits="userSpaceOnUse"
   id="clipPath76"><path
     d="M 115.625,250 H 2362.5 V 1328.125 H 115.625 Z"
     transform="matrix(0.31999999,0,0,0.31999999,-108.32496,-203.99999)"
     clip-rule="evenodd"
     id="path76" /></clipPath><clipPath
   clipPathUnits="userSpaceOnUse"
   id="clipPath78"><path
     d="M 115.625,250 H 2362.5 V 1328.125 H 115.625 Z"
     transform="matrix(0.31999999,0,0,0.31999999,-292.26562,-203.99999)"
     clip-rule="evenodd"
     id="path78" /></clipPath><clipPath
   clipPathUnits="userSpaceOnUse"
   id="clipPath80"><path
     d="M 115.625,250 H 2362.5 V 1328.125 H 115.625 Z"
     transform="matrix(0.31999999,0,0,0.31999999,-300.26562,-203.99999)"
     clip-rule="evenodd"
     id="path80" /></clipPath><clipPath
   clipPathUnits="userSpaceOnUse"
   id="clipPath82"><path
     d="M 115.625,250 H 2362.5 V 1328.125 H 115.625 Z"
     transform="matrix(0.31999999,0,0,0.31999999,-372.24998,-203.99999)"
     clip-rule="evenodd"
     id="path82" /></clipPath><clipPath
   clipPathUnits="userSpaceOnUse"
   id="clipPath84"><path
     d="M 115.625,250 H 2362.5 V 1328.125 H 115.625 Z"
     transform="matrix(0.31999999,0,0,0.31999999,-53.999998,-220.99999)"
     clip-rule="evenodd"
     id="path84" /></clipPath><clipPath
   clipPathUnits="userSpaceOnUse"
   id="clipPath86"><path
     d="M 115.625,250 H 2362.5 V 1328.125 H 115.625 Z"
     transform="matrix(0.31999999,0,0,0.31999999,-76.328122,-220.99999)"
     clip-rule="evenodd"
     id="path86" /></clipPath><clipPath
   clipPathUnits="userSpaceOnUse"
   id="clipPath88"><path
     d="M 115.625,250 H 2362.5 V 1328.125 H 115.625 Z"
     transform="matrix(0.31999999,0,0,0.31999999,-124.30934,-220.99999)"
     clip-rule="evenodd"
     id="path88" /></clipPath><clipPath
   clipPathUnits="userSpaceOnUse"
   id="clipPath90"><path
     d="M 115.625,250 H 2362.5 V 1328.125 H 115.625 Z"
     transform="matrix(0.31999999,0,0,0.31999999,-164.29687,-220.99999)"
     clip-rule="evenodd"
     id="path90" /></clipPath><clipPath
   clipPathUnits="userSpaceOnUse"
   id="clipPath92"><path
     d="M 115.625,250 H 2362.5 V 1328.125 H 115.625 Z"
     transform="matrix(0.31999999,0,0,0.31999999,-268.26562,-220.99999)"
     clip-rule="evenodd"
     id="path92" /></clipPath><clipPath
   clipPathUnits="userSpaceOnUse"
   id="clipPath94"><path
     d="M 115.625,250 H 2362.5 V 1328.125 H 115.625 Z"
     transform="matrix(0.31999999,0,0,0.31999999,-53.999998,-238.99999)"
     clip-rule="evenodd"
     id="path94" /></clipPath><clipPath
   clipPathUnits="userSpaceOnUse"
   id="clipPath96"><path
     d="M 115.625,250 H 2362.5 V 1328.125 H 115.625 Z"
     transform="matrix(0.31999999,0,0,0.31999999,-45.999998,-255.99999)"
     clip-rule="evenodd"
     id="path96" /></clipPath><clipPath
   clipPathUnits="userSpaceOnUse"
   id="clipPath98"><path
     d="M 115.625,250 H 2362.5 V 1328.125 H 115.625 Z"
     transform="matrix(0.32,0,0.08,0.32,-140.32813,-256)"
     clip-rule="evenodd"
     id="path98" /></clipPath><clipPath
   clipPathUnits="userSpaceOnUse"
   id="clipPath100"><path
     d="M 115.625,250 H 2362.5 V 1328.125 H 115.625 Z"
     transform="matrix(0.31999999,0,0,0.31999999,-45.999998,-272.99999)"
     clip-rule="evenodd"
     id="path100" /></clipPath><clipPath
   clipPathUnits="userSpaceOnUse"
   id="clipPath102"><path
     d="M 115.625,250 H 2362.5 V 1328.125 H 115.625 Z"
     transform="matrix(0.31999999,0,0,0.31999999,-76.328122,-272.99999)"
     clip-rule="evenodd"
     id="path102" /></clipPath><clipPath
   clipPathUnits="userSpaceOnUse"
   id="clipPath104"><path
     d="M 115.625,250 H 2362.5 V 1328.125 H 115.625 Z"
     transform="matrix(0.31999999,0,0,0.31999999,-108.32496,-272.99999)"
     clip-rule="evenodd"
     id="path104" /></clipPath><clipPath
   clipPathUnits="userSpaceOnUse"
   id="clipPath106"><path
     d="M 115.625,250 H 2362.5 V 1328.125 H 115.625 Z"
     transform="matrix(0.31999999,0,0,0.31999999,-164.31249,-272.99999)"
     clip-rule="evenodd"
     id="path106" /></clipPath><clipPath
   clipPathUnits="userSpaceOnUse"
   id="clipPath108"><path
     d="M 115.625,250 H 2362.5 V 1328.125 H 115.625 Z"
     transform="matrix(0.31999999,0,0,0.31999999,-212.29687,-272.99999)"
     clip-rule="evenodd"
     id="path108" /></clipPath><clipPath
   clipPathUnits="userSpaceOnUse"
   id="clipPath110"><path
     d="M 115.625,250 H 2362.5 V 1328.125 H 115.625 Z"
     transform="matrix(0.31999999,0,0,0.31999999,-276.28124,-272.99999)"
     clip-rule="evenodd"
     id="path110" /></clipPath><clipPath
   clipPathUnits="userSpaceOnUse"
   id="clipPath112"><path
     d="M 115.625,250 H 2362.5 V 1328.125 H 115.625 Z"
     transform="matrix(0.31999999,0,0,0.31999999,-284.28124,-272.99999)"
     clip-rule="evenodd"
     id="path112" /></clipPath><clipPath
   clipPathUnits="userSpaceOnUse"
   id="clipPath114"><path
     d="M 115.625,250 H 2362.5 V 1328.125 H 115.625 Z"
     transform="matrix(0.31999999,0,0,0.31999999,-476.21873,-272.99999)"
     clip-rule="evenodd"
     id="path114" /></clipPath><clipPath
   clipPathUnits="userSpaceOnUse"
   id="clipPath116"><path
     d="M 115.625,250 H 2362.5 V 1328.125 H 115.625 Z"
     transform="matrix(0.31999999,0,0,0.31999999,-484.21873,-272.99999)"
     clip-rule="evenodd"
     id="path116" /></clipPath><clipPath
   clipPathUnits="userSpaceOnUse"
   id="clipPath118"><path
     d="M 115.625,250 H 2362.5 V 1328.125 H 115.625 Z"
     transform="matrix(0.31999999,0,0,0.31999999,-45.999998,-290.99999)"
     clip-rule="evenodd"
     id="path118" /></clipPath><clipPath
   clipPathUnits="userSpaceOnUse"
   id="clipPath120"><path
     d="M 115.625,250 H 2362.5 V 1328.125 H 115.625 Z"
     transform="matrix(0.31999999,0,0,0.31999999,-45.999998,-307.99999)"
     clip-rule="evenodd"
     id="path120" /></clipPath><clipPath
   clipPathUnits="userSpaceOnUse"
   id="clipPath122"><path
     d="M 115.625,250 H 2362.5 V 1328.125 H 115.625 Z"
     transform="matrix(0.32,0,0.08,0.32,-153.32813,-308)"
     clip-rule="evenodd"
     id="path122" /></clipPath><clipPath
   clipPathUnits="userSpaceOnUse"
   id="clipPath124"><path
     d="M 115.625,250 H 2362.5 V 1328.125 H 115.625 Z"
     transform="matrix(0.32,0,0.08,0.32,-257.29372,-308)"
     clip-rule="evenodd"
     id="path124" /></clipPath><clipPath
   clipPathUnits="userSpaceOnUse"
   id="clipPath126"><path
     d="M 115.625,250 H 2362.5 V 1328.125 H 115.625 Z"
     transform="matrix(0.32,0,0.08,0.32,-329.27809,-308)"
     clip-rule="evenodd"
     id="path126" /></clipPath><clipPath
   clipPathUnits="userSpaceOnUse"
   id="clipPath128"><path
     d="M 115.625,250 H 2362.5 V 1328.125 H 115.625 Z"
     transform="matrix(0.31999999,0,0,0.31999999,-45.999998,-324.99999)"
     clip-rule="evenodd"
     id="path128" /></clipPath><clipPath
   clipPathUnits="userSpaceOnUse"
   id="clipPath130"><path
     d="M 115.625,250 H 2362.5 V 1328.125 H 115.625 Z"
     transform="matrix(0.31999999,0,0,0.31999999,-76.328122,-324.99999)"
     clip-rule="evenodd"
     id="path130" /></clipPath><clipPath
   clipPathUnits="userSpaceOnUse"
   id="clipPath132"><path
     d="M 115.625,250 H 2362.5 V 1328.125 H 115.625 Z"
     transform="matrix(0.31999999,0,0,0.31999999,-108.32496,-324.99999)"
     clip-rule="evenodd"
     id="path132" /></clipPath><clipPath
   clipPathUnits="userSpaceOnUse"
   id="clipPath134"><path
     d="M 115.625,250 H 2362.5 V 1328.125 H 115.625 Z"
     transform="matrix(0.31999999,0,0,0.31999999,-244.27808,-324.99999)"
     clip-rule="evenodd"
     id="path134" /></clipPath><clipPath
   clipPathUnits="userSpaceOnUse"
   id="clipPath136"><path
     d="M 115.625,250 H 2362.5 V 1328.125 H 115.625 Z"
     transform="matrix(0.31999999,0,0,0.31999999,-45.999998,-342.99999)"
     clip-rule="evenodd"
     id="path136" /></clipPath><clipPath
   clipPathUnits="userSpaceOnUse"
   id="clipPath138"><path
     d="M 115.625,250 H 2362.5 V 1328.125 H 115.625 Z"
     transform="matrix(0.31999999,0,0,0.31999999,-45.999998,-359.99999)"
     clip-rule="evenodd"
     id="path138" /></clipPath><clipPath
   clipPathUnits="userSpaceOnUse"
   id="clipPath140"><path
     d="M 115.625,250 H 2362.5 V 1328.125 H 115.625 Z"
     transform="matrix(0.32,0,0.08,0.32,-166.32813,-360)"
     clip-rule="evenodd"
     id="path140" /></clipPath><clipPath
   clipPathUnits="userSpaceOnUse"
   id="clipPath142"><path
     d="M 115.625,250 H 2362.5 V 1328.125 H 115.625 Z"
     transform="matrix(0.31999999,0,0,0.31999999,-45.999998,-376.99998)"
     clip-rule="evenodd"
     id="path142" /></clipPath><clipPath
   clipPathUnits="userSpaceOnUse"
   id="clipPath144"><path
     d="M 115.625,250 H 2362.5 V 1328.125 H 115.625 Z"
     transform="matrix(0.31999999,0,0,0.31999999,-76.328122,-376.99998)"
     clip-rule="evenodd"
     id="path144" /></clipPath><clipPath
   clipPathUnits="userSpaceOnUse"
   id="clipPath146"><path
     d="M 115.625,250 H 2362.5 V 1328.125 H 115.625 Z"
     transform="matrix(0.31999999,0,0,0.31999999,-124.31249,-376.99998)"
     clip-rule="evenodd"
     id="path146" /></clipPath><clipPath
   clipPathUnits="userSpaceOnUse"
   id="clipPath148"><path
     d="M 115.625,250 H 2362.5 V 1328.125 H 115.625 Z"
     transform="matrix(0.31999999,0,0,0.31999999,-180.29687,-376.99998)"
     clip-rule="evenodd"
     id="path148" /></clipPath><clipPath
   clipPathUnits="userSpaceOnUse"
   id="clipPath150"><path
     d="M 115.625,250 H 2362.5 V 1328.125 H 115.625 Z"
     transform="matrix(0.31999999,0,0,0.31999999,-188.29687,-376.99998)"
     clip-rule="evenodd"
     id="path150" /></clipPath><clipPath
   clipPathUnits="userSpaceOnUse"
   id="clipPath152"><path
     d="M 115.625,250 H 2362.5 V 1328.125 H 115.625 Z"
     transform="matrix(0.31999999,0,0,0.31999999,-332.24683,-376.99998)"
     clip-rule="evenodd"
     id="path152" /></clipPath><clipPath
   clipPathUnits="userSpaceOnUse"
   id="clipPath154"><path
     d="M 115.625,250 H 2362.5 V 1328.125 H 115.625 Z"
     transform="matrix(0.31999999,0,0,0.31999999,-468.20311,-376.99998)"
     clip-rule="evenodd"
     id="path154" /></clipPath><clipPath
   clipPathUnits="userSpaceOnUse"
   id="clipPath156"><path
     d="M 115.625,250 H 2362.5 V 1328.125 H 115.625 Z"
     transform="matrix(0.31999999,0,0,0.31999999,-45.999998,-394.99998)"
     clip-rule="evenodd"
     id="path156" /></clipPath><clipPath
   clipPathUnits="userSpaceOnUse"
   id="clipPath158"><path
     d="M 115.625,250 H 2362.5 V 1328.125 H 115.625 Z"
     transform="matrix(0.31999999,0,0,0.31999999,-45.999998,-411.99998)"
     clip-rule="evenodd"
     id="path158" /></clipPath><clipPath
   clipPathUnits="userSpaceOnUse"
   id="clipPath160"><path
     d="M 115.625,250 H 2362.5 V 1328.125 H 115.625 Z"
     transform="matrix(0.32,0,0.08,0.32,-179.32812,-412)"
     clip-rule="evenodd"
     id="path160" /></clipPath>
			
			
		
				
				
				
				
			
				
				
			
					
					
					
					
					
					
					
					
					
					
					
					
					
					
					
					
					
					
					
					
					
					
					
					
					
					
					
					
					
					
					
					
					
					
					
					
					
					
					
					
					
					
					
				
					
				
					
				
					
				
					
				
					
				
						
						
						
					
						
						
						
					
						
						
						
					
						
						
						
					
						
						
						
					
						
						
						
					
						
						
						
					
						
						
						
					
						
						
						
					
						
						
						
					
						
						
						
					
						
						
						
					
						
						
						
					
						
						
						
					
						
						
						
					
						
						
						
					
						
						
						
					
						
						
						
					
						
						
						
					
						
						
						
					
						
						
						
					
						
						
						
					
						
						
						
					
						
						
						
					
						
						
						
					
						
						
						
					
						
						
						
					
						
						
						
					
						
						
						
					
						
						
						
					
						
						
						
					
						
						
						
					
						
						
						
					
						
						
						
					
						
						
						
					
						
						
						
					
						
						
						
					
						
						
						
					
						
						
						
					
						
						
						
					
						
						
						
					
						
						
						
					
						
						
						
						
						
						
					
						
						
						
					
						
						
						
					
						
						
						
					
						
						
						
					
							
						
							
						
							
						
							
						
							
						
							
						
							
						
							
						
							
						
							
						
							
						
							
						
							
						
							
						
							
						
							
						
							
						
							
						
							
						
							
						
							
						
							
						
							
						
							
						
							
						
							
						
							
						
							
						
							
						
							
						
							
						
							
						
							
						
							
						
							
						
							
						
							
						
							
						
							
						
							
						
							
						
							
						
							
						
							
						
							
						
							
						
							
						
							
						
							
						
							
						
							
						
							
						
							
						
							
						
							
						
							
						
							
						
							
						
							
						
							
						
							
						
							
						
							
						
							
						
							
						
							
						
							
						
							
						
							
						
							
						
							
						
							
						
							
						
							
						
							
						
							
						
							
						
							
						
							
						
							
						
							
						
							
						
							
						
							
						
							
						
							
						
							
						
							
						
							
						
							
						
							
						
							
						
							
						
							
						
							
						
							
						
							
						
							
						
							
						
							
						
							
						
							
						
							
						
							
						
							
						
							
						
							
						
							
						
							
						
							
						
							
						
							
						
							
						
							
						
							
						
							
						
							
						
							
						
							
						
							
						
							
						
							
						
							
						
							
						
							
						
							
						
							
						
							
						
							
						
							
						
							
						
							
						
							
						
							
						
							
						
							
						
							
						
							
						
							
						
							
						
							
						
							
						
							
						
							
						</defs><sodipodi:namedview
     id="base"
     pagecolor="#ffffff"
     bordercolor="#666666"
     borderopacity="1.0"
     inkscape:pageopacity="0.0"
     inkscape:pageshadow="2"
     inkscape:zoom="0.86125606"
     inkscape:cx="315.81781"
     inkscape:cy="319.88164"
     inkscape:document-units="px"
     inkscape:current-layer="g3212"
     showgrid="false"
     inkscape:window-width="1215"
     inkscape:window-height="776"
     inkscape:window-x="65"
     inkscape:window-y="24"
     inkscape:window-maximized="1"
     showguides="true"
     inkscape:guide-bbox="true"
     inkscape:snap-global="false"
     inkscape:snap-bbox="true"
     inkscape:showpageshadow="0"
     inkscape:pagecheckerboard="0"
     inkscape:deskcolor="#d1d1d1" /><metadata
     id="metadata7"><rdf:RDF><cc:Work
         rdf:about=""><dc:format>image/svg+xml</dc:format><dc:type
           rdf:resource="http://purl.org/dc/dcmitype/StillImage" /></cc:Work></rdf:RDF></metadata><g
     style="display:inline"
     transform="translate(7.3034495,-543.60869)"
     id="g3212"
     inkscape:groupmode="layer"
     inkscape:label="1"><rect
       style="font-variation-settings:normal;opacity:1;vector-effect:none;fill:#217867;fill-opacity:1;fill-rule:evenodd;stroke:#000000;stroke-width:0.999999;stroke-linecap:butt;stroke-linejoin:miter;stroke-miterlimit:4;stroke-dasharray:none;stroke-dashoffset:0;stroke-opacity:1;-inkscape-stroke:none;stop-color:#000000;stop-opacity:1"
       id="rect742"
       width="840"
       height="530.4433"
       x="-7.3034496"
       y="543.6087"
       ry="0" /><text
       xml:space="preserve"
       style="font-size:56.6294px;line-height:1.25;font-family:Arial;-inkscape-font-specification:'Arial, Normal';letter-spacing:0px;word-spacing:0px;stroke-width:1.76967;fill:#ffffff"
       x="171.1506"
       y="833.19092"
       id="text798"><tspan
         sodipodi:role="line"
         id="tspan796"
         x="171.1506"
         y="833.19092"
         style="stroke-width:1.76967;fill:#ffffff">IMAGEM PADRÃO</tspan></text></g></svg>
